<?xml version="1.0" standalone="no"?>
<!DOCTYPE svg PUBLIC "-//W3C//DTD SVG 20010904//EN"
 "http://www.w3.org/TR/2001/REC-SVG-20010904/DTD/svg10.dtd">
<svg version="1.0" xmlns="http://www.w3.org/2000/svg"
 width="108.000000pt" height="108.000000pt" viewBox="0 0 108.000000 108.000000"
 preserveAspectRatio="xMidYMid meet">
<metadata>
Created by potrace 1.16, written by Peter Selinger 2001-2019
</metadata>
<g transform="translate(0.000000,108.000000) scale(0.100000,-0.100000)"
fill="#000000" stroke="none">
<path d="M431 1065 c-141 -32 -264 -118 -343 -239 -109 -169 -109 -405 1 -572
188 -287 573 -334 820 -101 225 214 220 567 -11 783 -121 115 -306 166 -467
129z m264 -67 c125 -41 222 -129 284 -258 35 -74 36 -77 36 -200 0 -124 0
-126 -37 -203 -50 -105 -130 -185 -235 -235 -77 -37 -79 -37 -203 -37 -124 0
-126 0 -203 37 -105 50 -185 130 -235 235 -37 77 -37 79 -37 203 0 124 0 126
37 203 108 226 356 332 593 255z"/>
<path d="M427 960 c-51 -10 -89 -48 -137 -141 -51 -99 -74 -210 -71 -342 3
-107 30 -203 76 -263 31 -41 131 -93 181 -94 41 0 66 0 124 0 66 0 163 55 199
114 49 79 86 286 62 349 -6 14 -12 50 -16 79 -7 69 -83 225 -129 266 -27 23
-48 31 -96 37 -48 6 -65 4 -72 -6 -7 -11 -11 -11 -15 -1 -5 13 -45 14 -106 2z
m95 -45 c12 -48 9 -225 -5 -225 -9 0 -8 -3 1 -8 8 -6 12 -29 11 -70 -2 -49 -5
-62 -18 -63 -13 -1 -13 -2 2 -6 13 -3 17 -15 17 -45 0 -32 -3 -38 -13 -30 -10
8 -16 5 -27 -11 -12 -20 -12 -21 3 -9 28 23 37 4 37 -79 0 -61 -3 -79 -12 -73
-10 6 -10 4 0 -7 18 -20 16 -118 -4 -126 -13 -5 -13 -7 -2 -14 8 -6 1 -9 -23
-9 -45 0 -141 48 -155 78 -6 13 -15 22 -20 20 -11 -4 -49 71 -40 79 3 3 14 0
23 -8 16 -12 17 -12 6 2 -7 9 -10 18 -7 22 3 3 -3 3 -13 1 -16 -4 -22 3 -31
34 -18 59 -16 102 6 103 15 1 15 2 0 6 -25 6 -30 51 -13 113 8 30 15 69 15 85
0 35 44 135 59 135 6 0 8 6 5 13 -6 16 34 69 47 62 5 -4 6 0 3 8 -6 17 21 41
36 32 5 -3 10 -2 10 4 0 5 12 12 28 14 52 8 65 3 74 -28z m187 -11 c11 -15 18
-31 14 -37 -3 -6 -1 -7 6 -3 15 10 91 -147 91 -188 0 -17 7 -56 15 -86 14 -53
11 -135 -5 -125 -5 3 -6 -4 -3 -15 9 -34 -26 -37 -52 -4 -13 16 -21 32 -19 36
9 14 -36 -5 -51 -22 -12 -13 -13 -20 -5 -25 8 -5 4 -15 -11 -31 -12 -13 -18
-24 -12 -24 6 0 14 7 17 16 3 9 12 14 20 11 8 -3 22 1 33 8 25 19 31 18 38 -5
6 -18 8 -18 21 -5 16 16 34 20 34 8 0 -5 -5 -26 -11 -47 l-11 -39 -17 27 c-16
24 -19 25 -37 11 -23 -17 -38 -19 -28 -3 4 6 3 8 -4 4 -6 -3 -12 0 -14 7 -2
10 -11 7 -30 -12 -26 -25 -27 -26 -9 -48 16 -19 21 -20 36 -9 17 12 16 13 -6
12 -18 -1 -24 4 -24 19 0 30 30 29 49 0 17 -26 17 -28 -6 -53 l-23 -27 26 23
c14 12 32 22 40 22 8 0 20 5 27 12 16 16 15 5 -1 -35 -8 -18 -32 -49 -55 -69
-36 -33 -44 -36 -72 -28 -19 5 -28 5 -25 -1 4 -5 14 -9 23 -10 29 -1 -41 -28
-74 -29 -20 0 -34 6 -38 16 -11 28 -7 561 4 544 8 -12 10 -11 10 8 0 12 7 25
15 28 9 4 15 19 15 39 0 29 3 33 21 30 16 -3 18 -1 10 9 -6 7 -8 16 -5 19 4 3
6 25 6 48 -1 38 1 41 23 36 14 -2 22 0 19 4 -13 21 17 6 35 -17z"/>
</g>
</svg>
